<?xml version='1.0' encoding='utf-8'?>
<svg xmlns="http://www.w3.org/2000/svg" viewBox="0 0 301.625 301.625" height="1140" width="1140"><defs><clipPath clipPathUnits="userSpaceOnUse" id="a"><path d="M-209.614 254.423a4.853 2.802 0 01-6.863 0 4.853 2.802 0 010-3.962 4.853 2.802 0 016.863 0 4.853 2.802 0 010 3.962z" fill="#262f3f" stroke-width=".931" stroke-linejoin="round" paint-order="stroke markers fill"/></clipPath><clipPath clipPathUnits="userSpaceOnUse" id="b"><path d="M-692.82 900l69.282 40-51.961 30-69.283-40z" fill="#3da5ac" stroke-width=".246"/></clipPath></defs><path fill="#2980b9" paint-order="stroke markers fill" d="M0 0h301.625v301.625H0z"/><path d="M148.521 103.992l-119.15 68.791a9.165 9.165 0 000 15.875l100.82 58.209a27.496 27.496 0 0027.495 0l119.151-68.792z" opacity=".25"/><path d="M148.521 66.95l128.316 74.083-119.15 68.792L29.37 135.74z" fill="#f1ecda"/><path d="M157.687 109.283l77.906 44.98-77.906 44.978-77.906-44.979z" fill="#95a1a5"/><path d="M82.072 118.543l4.582 2.646-32.079 18.521-4.582-2.646zM95.82 126.481l4.583 2.646-32.08 18.52-4.582-2.645z" fill="#876c33"/><path d="M180.6 96.054l77.906 44.979-18.33 10.583-77.907-44.979z" fill="#95a1a5"/><path d="M148.521 77.533l22.914 13.23-18.331 10.583-22.914-13.23z" fill="#d9c59a"/><path d="M139.356 93.408l-4.583 2.646v5.292l9.166 5.292 4.582-2.646V98.7z" fill="#f49103"/><path d="M122.216 99.123a4.853 2.802 0 01-6.863 0 4.853 2.802 0 010-3.962 4.853 2.802 0 016.863 0 4.853 2.802 0 010 3.962z" fill="#262f3f" paint-order="stroke markers fill"/><path d="M118.734 93.313c-4.146 0-8.292.914-11.456 2.74h-.001c-3.163 1.828-4.745 4.22-4.746 6.615 0 .022.002.043.003.065 0 .021-.003.042-.003.064s.002.043.003.065l-.003.064c0 .022.002.043.003.065 0 .021-.003.042-.003.064l.003.065-.003.064c0 .022.002.043.003.065 0 .022-.003.043-.003.064l.003.065c0 .02-.003.042-.003.064l.003.064c0 .022-.003.043-.003.065 0 .022.002.043.003.065 0 .022-.003.043-.003.065l.003.064c0 .022-.003.043-.003.065l.003.064c0 .022-.003.043-.003.065 0 .025.003.05.003.076l-.002.053.003.064c0 .022-.003.043-.003.065l.003.064c0 .022-.003.043-.003.065l.003.064c0 .022-.003.043-.003.065l.003.064c0 .022-.003.043-.003.065 0 .022.002.043.003.065l-.003.064c0 .022.002.043.003.064 0 .022-.003.043-.003.065l.003.064c0 .022-.003.043-.003.065 0 .022.002.043.003.065 0 .021-.003.043-.003.065l.003.064c0 .022-.003.043-.003.065l.003.066-.003.063c0 .022.002.044.003.065l-.003.064c0 .022.002.044.003.065 0 .022-.003.043-.003.064l.003.066-.003.063c0 .022.002.044.003.065 0 .022-.003.043-.003.064 0 .022.002.043.003.065l-.003.064c0 .022.002.043.003.065 0 .021-.003.042-.003.064l.003.064c0 .022-.003.043-.003.065 0 .022.002.043.003.065l-.003.064c0 .022.002.043.003.064 0 .022-.003.043-.003.065 0 .022.002.043.003.065 0 .022-.003.043-.003.065 0 .022.002.043.003.065l-.003.064c0 .022.002.043.003.064 0 .022-.003.043-.003.065 0 .022.002.043.003.065l-.003.064c0 .022.002.043.003.064 0 .022-.003.043-.003.065l.003.066-.003.063.003.066-.003.063c0 .022.002.043.003.065l-.003.064c0 .022.002.043.003.065l-.003.064c0 .022.002.043.003.065l-.003.064c0 .022.002.043.003.065l-.003.064c0 2.481 1.707 4.861 4.745 6.615h.003c3.038 1.754 7.158 2.74 11.454 2.74h.002c4.296 0 8.417-.987 11.455-2.74 3.039-1.755 4.746-4.135 4.746-6.616l-.003-.064c0-.022.003-.043.003-.065l-.003-.064c0-.022.003-.043.003-.065l-.003-.064c0-.022.003-.043.003-.065l-.003-.064c0-.021.003-.043.003-.065 0-.022-.002-.043-.003-.065l.003-.064c0-.022-.002-.044-.003-.065 0-.022.003-.043.003-.064 0-.022-.002-.043-.003-.065 0-.021.003-.042.003-.064 0-.025-.003-.051-.003-.077l.002-.052c0-.022-.002-.043-.003-.065 0-.021.003-.042.003-.064l-.003-.064c0-.022.003-.043.003-.065l-.003-.064c0-.022.003-.043.003-.065 0-.022-.002-.043-.003-.065 0-.021.003-.042.003-.064l-.003-.064c0-.022.003-.043.003-.065 0-.022-.002-.043-.003-.065l.003-.064c0-.022-.002-.044-.003-.065l.003-.064c0-.022-.002-.044-.003-.065 0-.022.003-.043.003-.064l-.003-.066.003-.063c0-.022-.002-.044-.003-.065 0-.022.003-.043.003-.064 0-.022-.002-.043-.003-.065l.003-.064c0-.022-.002-.043-.003-.065 0-.021.003-.042.003-.064s-.002-.043-.003-.065c0-.022.003-.043.003-.065 0-.022-.002-.043-.003-.065l.003-.064c0-.022-.002-.043-.003-.065l.003-.064c0-.022-.002-.043-.003-.065l.003-.064c0-.022-.002-.043-.003-.065 0-.021.003-.042.003-.064l-.003-.064c0-.022.003-.043.003-.065 0-.022-.002-.043-.003-.065l.003-.064c0-.022-.002-.043-.003-.065l.003-.064-.003-.065.003-.064c0-.022-.002-.043-.003-.065l.003-.064c0-.022-.002-.043-.003-.065l.003-.064c0-.022-.002-.043-.003-.065l.003-.064c0-.022-.002-.043-.003-.065l.003-.064c0-.022-.002-.043-.003-.064 0-.022.003-.043.003-.065 0-.022-.002-.043-.003-.065l.003-.064c0-.022-.002-.043-.003-.065l.003-.064c0-.022-.002-.043-.003-.065l.003-.064c0-.022-.002-.043-.003-.065l.003-.064c0-.022-.002-.043-.003-.065l.003-.064c0-.022-.002-.043-.003-.065l.003-.064c0-.022-.002-.043-.003-.065 0-.021.003-.043.003-.065 0-2.394-1.581-4.787-4.743-6.613l-.002-.002c-3.164-1.826-7.31-2.74-11.457-2.74z" fill="#262f3f" paint-order="stroke markers fill"/><path d="M107.277 111.929l-4.582 2.646v5.29l9.165 5.293 4.582-2.645-.001-5.292h.001z" fill="#284079"/><path d="M107.277 111.929l9.165 5.292-4.582 2.645-9.166-5.291z" fill="#34619c"/><path d="M93.528 103.992l-4.582 2.646v5.29l9.165 5.293 4.582-2.645v-5.292z" fill="#284079"/><path d="M93.528 103.992l9.166 5.292-4.583 2.645-9.165-5.291z" fill="#34619c"/><path d="M56.867 125.158l-4.583 2.646v5.292l9.166 5.29 4.582-2.645v-5.291z" fill="#8a3e28"/><path d="M56.928 125.123l9.104 5.327-4.582 2.646-9.166-5.292z" fill="#b24233"/><path d="M139.356 93.408l9.165 5.292-4.582 2.646-9.166-5.292z" fill="#fcb433"/><path d="M125.608 85.47l-4.582 2.646h-.001v5.292l9.165 5.292 4.582-2.646v-5.292z" fill="#ffed36"/><path d="M125.608 85.47l9.165 5.292-4.583 2.646-9.165-5.292z" fill="#faffd9"/><path d="M178.31 97.377l-4.583 2.645-.001.001v5.29l9.165 5.293 4.582-2.646h.001v-5.292z" fill="#ffed36"/><path d="M178.309 97.377l9.165 5.291-4.582 2.646-9.166-5.291z" fill="#faffd9"/><path d="M192.057 105.314l-4.582 2.646v5.291l9.165 5.292 4.581-2.645h.001v-5.293z" fill="#ffed36"/><path d="M192.057 105.314l9.166 5.292-4.583 2.646-9.166-5.292z" fill="#faffd9"/><path d="M205.806 113.252l-4.583 2.645v5.291l9.165 5.293 4.581-2.646h.001v-5.292z" fill="#ffed36"/><path d="M205.805 113.252l9.166 5.291-4.583 2.646-9.165-5.291z" fill="#faffd9"/><path d="M29.37 135.742a9.164 9.164 0 00-4.582 7.937c0 .086.006.172.009.258-.003.086-.01.171-.01.258 0 .086.007.172.01.258-.003.086-.01.171-.01.258 0 .086.007.171.01.257-.003.086-.01.171-.01.258 0 .086.007.171.01.257l-.01.259.01 18.715c-.005.12-.008.24-.008.361v.031a9.165 9.165 0 004.583 7.934l100.819 58.209a27.496 27.496 0 0027.496 0v-21.167z" fill="#a6a087"/><path d="M29.37 135.741l128.317 74.084a27.496 27.496 0 01-27.497 0L29.37 151.616a9.165 9.165 0 010-15.875z" fill="#c0c0a9"/><path d="M157.687 209.825v21.166l119.15-68.791v-21.167z" fill="#d9c59a"/><path d="M88.942 122.51l-4.583 2.646v5.292l9.167 5.29 4.582-2.644v-5.292z" fill="#8a3e28"/><path d="M89.003 122.475l9.105 5.327-4.583 2.646-9.165-5.292z" fill="#b24233"/><path d="M130.19 109.283a16.202 9.354 0 01-22.913 0 16.202 9.354 0 010-13.23 16.202 9.354 0 0122.913 0 16.202 9.354 0 010 13.23z" fill="#4c5057" paint-order="stroke markers fill"/><path d="M122.216 99.652a4.853 2.802 0 01-6.863 0 4.853 2.802 0 010-3.962 4.853 2.802 0 016.863 0 4.853 2.802 0 010 3.962z" fill="#262f3f" paint-order="stroke markers fill"/><path d="M-209.614 256.01a4.853 2.802 0 01-6.863 0 4.853 2.802 0 010-3.962 4.853 2.802 0 016.863 0 4.853 2.802 0 010 3.963z" clip-path="url(#a)" transform="translate(331.83 -154.771)" fill="#636872" paint-order="stroke markers fill"/><path d="M226.204 118.895c-1.653 0-3.307.364-4.568 1.092-1.213.699-1.894 1.648-1.894 2.637 0 .043.003.085.006.128a1.841 1.841 0 00-.006.129c0 .043.003.085.006.128-.003.043-.006.086-.006.13 0 .043.003.086.006.129-.003.043-.006.085-.006.128s.003.087.006.13c-.003.043-.006.086-.006.129 0 .043.003.086.006.128-.003.043-.006.086-.006.13 0 .042.003.085.006.128a1.841 1.841 0 00-.006.128c0 .043.003.086.006.13-.003.042-.006.084-.006.127s.003.086.006.129a1.841 1.841 0 00-.006.129c0 .043.003.085.006.128-.003.043-.006.086-.006.13 0 .043.003.085.006.128-.003.043-.006.086-.006.13 0 .043.003.086.006.129-.003.042-.006.085-.006.128s.003.087.006.13c-.003.042-.006.085-.006.129 0 .043.003.085.006.128-.003.043-.006.086-.006.13 0 .042.003.085.006.128a1.841 1.841 0 00-.006.128c0 .043.003.086.006.129-.003.043-.006.085-.006.128s.003.086.006.129a1.841 1.841 0 00-.006.129c0 .043.003.086.006.129-.003.043-.006.085-.006.128s.003.086.006.13c-.003.042-.006.085-.006.128s.003.086.006.13c-.003.042-.006.085-.006.128 0 .047.003.094.006.141-.002.04-.005.078-.005.118 0 .043.003.085.006.128-.003.043-.006.086-.006.13 0 .042.003.085.006.128a1.841 1.841 0 00-.006.128c0 .043.003.086.006.129-.003.043-.006.085-.006.128s.003.086.006.13c-.003.042-.006.085-.006.128 0 .044.003.087.006.13-.003.042-.006.085-.006.128s.003.086.006.129c-.003.043-.006.086-.006.13 0 .042.003.085.006.128-.003.043-.006.086-.006.129 0 .043.003.086.006.13-.003.042-.006.085-.006.128s.003.086.006.13c-.003.042-.006.085-.006.128s.003.086.006.128a1.841 1.841 0 00-.006.13c0 .042.003.085.006.128-.003.043-.006.086-.006.129 0 .043.003.086.006.13-.003.042-.006.085-.006.128 0 .044.003.087.006.13-.003.042-.006.085-.006.128s.003.086.006.129c-.003.043-.006.086-.006.13 0 .042.003.085.006.128-.003.043-.006.086-.006.129 0 .043.003.086.006.13-.003.042-.006.085-.006.128s.003.086.006.129c-.003.043-.006.086-.006.13 0 .042.003.085.006.128-.003.044-.006.087-.006.13 0 .043.003.086.006.129-.003.043-.006.086-.006.129 0 .043.003.086.006.13-.003.042-.006.085-.006.128 0 .044.003.087.006.13a1.841 1.841 0 00-.006.128c0 .99.681 1.938 1.893 2.638 1.211.7 2.855 1.093 4.569 1.093s3.357-.393 4.57-1.093c1.21-.699 1.891-1.648 1.891-2.637 0-.043-.003-.086-.005-.128.003-.043.005-.086.005-.129 0-.043-.003-.086-.005-.129.003-.043.005-.086.005-.129 0-.044-.003-.088-.006-.133.002-.041.006-.083.006-.125 0-.044-.003-.089-.006-.133.002-.042.006-.083.006-.125a1.96 1.96 0 00-.006-.133c.002-.04.006-.082.006-.124a1.96 1.96 0 00-.006-.132c.002-.042.006-.083.006-.125 0-.044-.003-.088-.006-.132.002-.042.006-.083.006-.125 0-.043-.003-.085-.006-.128.003-.043.006-.086.006-.129 0-.043-.003-.085-.006-.128.003-.043.006-.086.006-.13 0-.043-.003-.086-.006-.129.003-.042.006-.086.006-.129 0-.043-.003-.086-.006-.129.003-.043.006-.086.006-.129 0-.043-.003-.085-.006-.128.003-.043.006-.086.006-.13 0-.043-.003-.086-.006-.129.003-.043.006-.085.006-.128s-.003-.086-.006-.13c.003-.042.006-.085.006-.128s-.003-.085-.006-.128c.003-.043.006-.086.006-.129 0-.043-.003-.087-.006-.13.002-.043.005-.085.005-.127 0-.043-.003-.086-.005-.13.003-.042.005-.085.005-.128s-.003-.086-.005-.13c.003-.042.005-.085.005-.129 0-.043-.003-.086-.005-.129a1.84 1.84 0 00.005-.129c0-.043-.003-.085-.005-.128.003-.043.005-.086.005-.13 0-.043-.003-.086-.005-.129a1.84 1.84 0 00.005-.128c0-.043-.003-.086-.005-.129a1.84 1.84 0 00.005-.129c0-.043-.003-.085-.005-.128.003-.043.005-.086.005-.13 0-.043-.003-.086-.005-.129a1.84 1.84 0 00.005-.128c0-.043-.003-.086-.005-.13.003-.042.005-.085.005-.128s-.003-.086-.005-.13c.003-.042.005-.085.005-.129 0-.043-.003-.086-.005-.129a1.84 1.84 0 00.005-.128c0-.045-.003-.09-.006-.134.002-.041.006-.083.006-.124 0-.044-.003-.087-.006-.13.003-.042.006-.085.006-.128s-.003-.086-.006-.129c.003-.043.006-.086.006-.129 0-.043-.003-.085-.006-.128.003-.043.006-.086.006-.13 0-.043-.003-.086-.006-.129.003-.043.006-.085.006-.128s-.003-.086-.006-.13c.003-.042.006-.085.006-.128s-.003-.086-.006-.13c.003-.042.006-.085.006-.129 0-.043-.003-.086-.006-.129.003-.043.006-.085.006-.128 0-.044-.003-.088-.006-.131.002-.042.005-.085.005-.127 0-.043-.003-.086-.005-.13a1.84 1.84 0 00.005-.128c0-.043-.003-.086-.005-.13.003-.042.005-.085.005-.129 0-.043-.003-.085-.005-.128.003-.043.005-.086.005-.13 0-.043-.003-.086-.005-.129a1.84 1.84 0 00.005-.128c0-.043-.003-.086-.005-.13a1.84 1.84 0 00.005-.128c0-.99-.68-1.938-1.892-2.638-1.262-.728-2.915-1.093-4.57-1.093z" opacity=".999" fill="#565842" paint-order="stroke markers fill"/><path d="M230.773 125.263a6.462 3.73 0 01-9.138 0 6.462 3.73 0 010-5.276 6.462 3.73 0 019.138 0 6.462 3.73 0 010 5.276z" opacity=".999" fill="#f88d76" paint-order="stroke markers fill"/><path d="M240.175 126.719c-1.653 0-3.306.364-4.567 1.092h-.001c-1.212.7-1.894 1.649-1.894 2.638 0 .044.003.086.006.13a1.841 1.841 0 00-.006.128c0 .044.003.087.006.13-.003.042-.006.085-.006.129 0 .043.003.086.006.129-.003.043-.006.085-.006.128 0 .044.003.087.006.13-.003.043-.006.086-.006.129 0 .043.003.086.006.129-.003.043-.006.086-.006.129 0 .044.003.086.006.129a1.841 1.841 0 00-.006.129c0 .044.003.086.006.13-.003.042-.006.084-.006.127v.001c0 .043.003.086.006.129a1.841 1.841 0 00-.006.129c0 .044.003.086.006.13-.003.042-.006.085-.006.129 0 .043.003.086.006.128-.003.043-.006.086-.006.13 0 .043.003.086.006.129-.003.043-.006.085-.006.128s.003.087.006.13c-.003.043-.006.086-.006.129 0 .043.003.086.006.128-.003.043-.006.086-.006.13 0 .043.003.086.006.129a1.841 1.841 0 00-.006.128v.001c0 .043.003.086.006.13-.003.042-.006.084-.006.127v.001c0 .043.003.086.006.129a1.841 1.841 0 00-.006.129c0 .044.003.087.006.13-.003.043-.006.085-.006.128s.003.086.006.13c-.003.042-.006.085-.006.128 0 .044.003.087.006.13-.003.042-.006.085-.006.128 0 .047.003.094.006.141-.002.04-.005.078-.005.118 0 .043.003.085.006.128-.003.043-.006.086-.006.13 0 .043.003.086.006.129a1.841 1.841 0 00-.006.128v.001c0 .043.003.086.006.129-.003.043-.006.085-.006.128v.001c0 .043.003.086.006.13-.003.042-.006.085-.006.129 0 .043.003.086.006.129-.003.043-.006.085-.006.128s.003.086.006.13c-.003.042-.006.085-.006.128s.003.086.006.13c-.003.042-.006.085-.006.128s.003.086.006.13c-.003.042-.006.085-.006.128s.003.086.006.13c-.003.042-.006.085-.006.128v.001c0 .043.003.086.006.129a1.841 1.841 0 00-.006.128v.001c0 .043.003.086.006.129-.003.043-.006.086-.006.13 0 .042.003.085.006.128-.003.043-.006.086-.006.13 0 .043.003.086.006.129-.003.043-.006.085-.006.128s.003.086.006.129c-.003.043-.006.086-.006.13 0 .042.003.085.006.128-.003.043-.006.086-.006.129 0 .043.003.086.006.13-.003.042-.006.085-.006.128 0 .044.003.086.006.13-.003.042-.006.085-.006.128s.003.086.006.13c-.003.043-.006.086-.006.13 0 .042.003.085.006.128-.003.043-.006.086-.006.13 0 .042.003.085.006.128-.003.043-.006.086-.006.13 0 .043.003.086.006.129a1.841 1.841 0 00-.006.128c0 .99.682 1.938 1.894 2.638 1.21.7 2.854 1.093 4.568 1.093 1.714 0 3.358-.393 4.57-1.093 1.211-.699 1.892-1.648 1.892-2.637a2.12 2.12 0 00-.005-.13c.002-.042.005-.085.005-.128 0-.044-.003-.087-.005-.13a2.14 2.14 0 00.005-.129c0-.044-.003-.088-.006-.133.003-.041.006-.083.006-.125 0-.044-.003-.089-.006-.133.003-.042.006-.083.006-.125 0-.045-.003-.09-.006-.133.003-.042.006-.083.006-.124v-.001c0-.045-.003-.09-.006-.133.003-.042.006-.083.006-.125 0-.045-.003-.089-.006-.133.003-.042.006-.083.006-.125 0-.043-.003-.086-.006-.129.003-.043.006-.086.006-.128v-.001c0-.043-.003-.086-.006-.13.003-.042.006-.085.006-.128 0-.044-.003-.087-.006-.13.003-.042.006-.086.006-.129 0-.043-.003-.086-.006-.129.003-.043.006-.086.006-.129 0-.043-.003-.085-.006-.128.003-.043.006-.086.006-.13 0-.043-.003-.086-.006-.129.003-.042.006-.085.006-.128v-.001c0-.043-.003-.086-.006-.129.003-.043.006-.086.006-.129 0-.044-.003-.086-.006-.129.003-.043.006-.086.006-.128v-.001c0-.044-.003-.088-.006-.131a2.122 2.122 0 000-.256c.003-.043.005-.086.005-.13 0-.042-.002-.085-.005-.128a2.14 2.14 0 00.005-.13c0-.043-.002-.086-.005-.129.003-.043.005-.085.005-.128 0-.044-.002-.086-.005-.13.003-.042.005-.085.005-.128 0-.044-.002-.087-.005-.13.003-.042.005-.085.005-.128v-.001c0-.043-.002-.086-.005-.129.003-.043.005-.086.005-.129 0-.044-.002-.086-.005-.13a2.14 2.14 0 00.005-.128c0-.044-.002-.087-.005-.13a2.123 2.123 0 000-.257 2.138 2.138 0 000-.258c.003-.043.005-.086.005-.13 0-.043-.002-.086-.005-.129.003-.043.005-.085.005-.128 0-.045-.002-.09-.005-.134.002-.041.005-.083.005-.124 0-.043-.003-.086-.005-.13.002-.042.005-.085.005-.128v-.001c0-.043-.003-.086-.005-.129.002-.043.005-.086.005-.128v-.001c0-.044-.003-.086-.005-.13.002-.042.005-.085.005-.128s-.003-.087-.005-.13c.002-.042.005-.085.005-.128s-.003-.086-.005-.13c.002-.042.005-.085.005-.128s-.003-.086-.005-.13c.002-.042.005-.085.005-.128 0-.044-.003-.087-.005-.13.002-.042.005-.085.005-.128 0-.044-.003-.088-.005-.131.002-.042.005-.085.005-.127 0-.043-.003-.086-.005-.13.002-.042.005-.085.005-.128v-.001c0-.043-.003-.086-.005-.13a2.14 2.14 0 00.005-.128c0-.044-.003-.086-.005-.13a2.14 2.14 0 00.005-.128c0-.043-.003-.086-.005-.13.002-.042.005-.085.005-.128s-.003-.086-.005-.13c.002-.042.005-.085.005-.128 0-.989-.68-1.938-1.892-2.638-1.262-.728-2.916-1.093-4.57-1.093z" opacity=".999" fill="#565842" paint-order="stroke markers fill"/><path d="M244.745 133.088a6.462 3.73 0 01-9.138 0 6.462 3.73 0 010-5.277 6.462 3.73 0 019.138 0 6.462 3.73 0 010 5.277z" opacity=".999" fill="#faffd9" paint-order="stroke markers fill"/><path d="M157.687 172.783l-13.748 7.937v5.29l13.748 7.939 13.715-7.918-.001-5.292h.001z" fill="#493f32"/><path d="M157.687 172.783l13.715 7.957-13.715 7.918-13.748-7.937z" fill="#5f5950"/><path d="M139.356 162.2l-13.748 7.937v5.291l13.748 7.938 13.715-7.917-.001-5.293z" fill="#493f32"/><path d="M139.355 162.2l13.715 7.957-13.715 7.919-13.748-7.938z" fill="#5f5950"/><path d="M157.686 151.618l-13.748 7.937v5.291l13.748 7.938 13.715-7.918v-5.292z" fill="#493f32"/><path d="M157.686 151.618l13.715 7.957-13.715 7.918-13.748-7.937z" fill="#5f5950"/><path d="M176.017 141.035l-13.748 7.937v5.29l13.748 7.939 13.715-7.918-.001-5.292h.001z" fill="#493f32"/><path d="M176.017 141.035l13.715 7.957-13.715 7.918-13.748-7.937z" fill="#5f5950"/><path d="M194.348 130.451l-13.748 7.937v5.291l13.748 7.938 13.715-7.917-.001-5.293z" fill="#493f32"/><path d="M194.348 130.452l13.715 7.956-13.715 7.919-13.748-7.938z" fill="#5f5950"/><g><path d="M121.025 151.617l-13.748 7.937v5.291l13.748 7.938 13.715-7.918-.001-5.292z" fill="#493f32"/><path d="M121.025 151.617l13.714 7.957-13.714 7.918-13.749-7.937z" fill="#5f5950"/><path d="M139.355 141.035l-13.748 7.937v5.29l13.748 7.939 13.715-7.918v-5.292z" fill="#493f32"/><path d="M139.355 141.035l13.715 7.957-13.715 7.918-13.748-7.937z" fill="#5f5950"/><path d="M157.686 130.451l-13.748 7.937v5.291l13.748 7.938 13.715-7.917v-5.293z" fill="#493f32"/><path d="M157.686 130.452l13.715 7.956-13.715 7.919-13.748-7.938z" fill="#5f5950"/><path d="M176.017 119.868l-13.748 7.937v5.291l13.748 7.938 13.715-7.918-.001-5.292h.001z" fill="#493f32"/><path d="M176.017 119.868l13.715 7.957-13.715 7.918-13.748-7.937z" fill="#5f5950"/></g><g><path d="M102.7 141.037l-13.747 7.937v5.292l13.748 7.938 13.715-7.918-.001-5.292z" fill="#493f32"/><path d="M102.7 141.038l13.715 7.957-13.715 7.918-13.748-7.938z" fill="#5f5950"/><path d="M121.031 130.455l-13.748 7.937v5.291l13.748 7.938 13.715-7.918v-5.292z" fill="#493f32"/><path d="M121.03 130.456l13.716 7.956-13.715 7.919-13.748-7.938z" fill="#5f5950"/><path d="M139.362 119.872l-13.748 7.937v5.29l13.748 7.939 13.715-7.918-.001-5.292h.001z" fill="#493f32"/><path d="M139.362 119.872l13.715 7.957-13.715 7.918-13.748-7.937z" fill="#5f5950"/><path d="M157.693 109.288l-13.748 7.937v5.292l13.748 7.938 13.715-7.918-.001-5.292z" fill="#493f32"/><path d="M157.693 109.289l13.715 7.957-13.715 7.918-13.749-7.938z" fill="#5f5950"/></g><g><path d="M176.018 162.2l-13.748 7.937v5.291l13.748 7.938 13.714-7.917v-5.293z" fill="#493f32"/><path d="M176.017 162.2l13.715 7.957-13.715 7.919-13.748-7.938z" fill="#5f5950"/></g><g><path d="M194.348 151.617l-13.748 7.937v5.291l13.748 7.938 13.715-7.918v-5.292z" fill="#493f32"/><path d="M194.348 151.617l13.715 7.957-13.715 7.918-13.748-7.937z" fill="#5f5950"/></g><g><path d="M212.68 141.034l-13.749 7.937v5.29l13.748 7.939 13.715-7.918v-5.292z" fill="#493f32"/><path d="M212.679 141.034l13.715 7.957-13.715 7.918-13.748-7.937z" fill="#5f5950"/></g><path d="M148.521 82.825l18.331 10.583-13.748 7.938-18.331-10.584z" fill="#3da5ac"/><path d="M-692.82 880l-17.32 10v60l34.64 20v-80zm34.64 20v60l17.32-10v-40z" transform="matrix(.26458 0 0 .26458 331.83 -155.3)" clip-path="url(#b)" opacity=".251" fill="#fff"/></svg>